<svg width="152" height="164" viewBox="0 -2 152 164" fill="none" xmlns="http://www.w3.org/2000/svg">
  <g filter="url(#filter0_f)">
    <rect
      x="32.751"
      y="32.9922"
      width="86.9546"
      height="99.0077"
      rx="20"
      fill="url(#paint0_linear)"
      fill-opacity="0.6"
    />
  </g>
  <rect x="25" y="2" width="103.312" height="117.087" rx="20" fill="url(#paint1_linear)" />
  <g filter="url(#filter1_d)">
    <path
      fill-rule="evenodd"
      clip-rule="evenodd"
      d="M76.4374 76.0873L57.7163 65.0301L76.4374 91.415L95.17 65.0301L76.4336 76.0873H76.4374ZM76.7189 30.4121L57.9978 61.4792L76.7189 72.548L95.44 61.4907L76.7189 30.4121Z"
      fill="#1C135A"
    />
  </g>
  <path
    fill-rule="evenodd"
    clip-rule="evenodd"
    d="M108 14C103.582 14 100 17.5817 100 21.9999C100 26.4181 103.582 29.9998 108 29.9998C112.418 29.9998 116 26.4181 116 21.9999C116 17.5817 112.418 14 108 14ZM108 15.5999C104.465 15.5999 101.6 18.4652 101.6 21.9998C101.6 25.5344 104.465 28.3997 108 28.3997C111.535 28.3997 114.4 25.5344 114.4 21.9998C114.4 18.4652 111.535 15.5999 108 15.5999Z"
    fill="#58536D"
    fill-opacity="0.36"
  />
  <defs>
    <filter
      id="filter0_f"
      x="0.750977"
      y="0.992188"
      width="150.955"
      height="163.008"
      filterUnits="userSpaceOnUse"
      color-interpolation-filters="sRGB"
    >
      <feFlood flood-opacity="0" result="BackgroundImageFix" />
      <feBlend mode="normal" in="SourceGraphic" in2="BackgroundImageFix" result="shape" />
      <feGaussianBlur stdDeviation="16" result="effect1_foregroundBlur" />
    </filter>
    <filter
      id="filter1_d"
      x="41.7163"
      y="27.4121"
      width="69.7237"
      height="93.0029"
      filterUnits="userSpaceOnUse"
      color-interpolation-filters="sRGB"
    >
      <feFlood flood-opacity="0" result="BackgroundImageFix" />
      <feColorMatrix
        in="SourceAlpha"
        type="matrix"
        values="0 0 0 0 0 0 0 0 0 0 0 0 0 0 0 0 0 0 127 0"
        result="hardAlpha"
      />
      <feOffset dy="13" />
      <feGaussianBlur stdDeviation="8" />
      <feComposite in2="hardAlpha" operator="out" />
      <feColorMatrix type="matrix" values="0 0 0 0 0.109804 0 0 0 0 0.0745098 0 0 0 0 0.352941 0 0 0 0.32 0" />
      <feBlend mode="normal" in2="BackgroundImageFix" result="effect1_dropShadow" />
      <feBlend mode="normal" in="SourceGraphic" in2="effect1_dropShadow" result="shape" />
    </filter>
    <linearGradient
      id="paint0_linear"
      x1="60.8939"
      y1="27.0279"
      x2="119.066"
      y2="145.078"
      gradientUnits="userSpaceOnUse"
    >
      <stop stop-color="#EEEDFF" />
      <stop offset="1" stop-color="#D4CCFF" />
    </linearGradient>
    <linearGradient
      id="paint1_linear"
      x1="40.0664"
      y1="-27.7023"
      x2="215.937"
      y2="268.801"
      gradientUnits="userSpaceOnUse"
    >
      <stop stop-color="#EEEDFF" />
      <stop offset="1" stop-color="#D4CCFF" />
    </linearGradient>
  </defs>
</svg>
