<svg width="148" height="160" viewBox="0 0 148 160" fill="none" xmlns="http://www.w3.org/2000/svg">
<g filter="url(#filter0_f)">
<rect x="30.751" y="30.9922" width="86.9546" height="99.0077" rx="20" fill="url(#paint0_linear)" fill-opacity="0.6"/>
</g>
<rect x="23" width="103.312" height="117.087" rx="20" fill="url(#paint1_linear)"/>
<path d="M96.1191 38.6851L77.3809 52.6022L80.846 44.3913L96.1191 38.6851Z" fill="#E2761B" stroke="#E2761B" stroke-width="0.188324" stroke-linecap="round" stroke-linejoin="round"/>
<path d="M52.8623 38.6851L71.4499 52.734L68.1542 44.3913L52.8623 38.6851Z" fill="#E4761B" stroke="#E4761B" stroke-width="0.188324" stroke-linecap="round" stroke-linejoin="round"/>
<path d="M89.3783 70.9458L84.3877 78.5918L95.0657 81.5296L98.1353 71.1153L89.3783 70.9458Z" fill="#E4761B" stroke="#E4761B" stroke-width="0.188324" stroke-linecap="round" stroke-linejoin="round"/>
<path d="M50.8848 71.1153L53.9356 81.5296L64.6136 78.5918L59.623 70.9458L50.8848 71.1153Z" fill="#E4761B" stroke="#E4761B" stroke-width="0.188324" stroke-linecap="round" stroke-linejoin="round"/>
<path d="M64.0107 58.0263L61.0352 62.5273L71.6378 62.9981L71.2611 51.6045L64.0107 58.0263Z" fill="#E4761B" stroke="#E4761B" stroke-width="0.188324" stroke-linecap="round" stroke-linejoin="round"/>
<path d="M84.9713 58.0268L77.6267 51.4731L77.3818 62.9986L87.9656 62.5278L84.9713 58.0268Z" fill="#E4761B" stroke="#E4761B" stroke-width="0.188324" stroke-linecap="round" stroke-linejoin="round"/>
<path d="M64.6138 78.5906L70.9791 75.4832L65.4801 71.1895L64.6138 78.5906Z" fill="#E4761B" stroke="#E4761B" stroke-width="0.188324" stroke-linecap="round" stroke-linejoin="round"/>
<path d="M78.0039 75.4832L84.3881 78.5906L83.503 71.1895L78.0039 75.4832Z" fill="#E4761B" stroke="#E4761B" stroke-width="0.188324" stroke-linecap="round" stroke-linejoin="round"/>
<path d="M84.3866 78.5907L78.0024 75.4834L78.5109 79.6454L78.4544 81.3968L84.3866 78.5907Z" fill="#D7C1B3" stroke="#D7C1B3" stroke-width="0.188324" stroke-linecap="round" stroke-linejoin="round"/>
<path d="M64.6128 78.5912L70.545 81.3973L70.5073 79.6458L70.9781 75.4839L64.6128 78.5912Z" fill="#D7C1B3" stroke="#D7C1B3" stroke-width="0.188324" stroke-linecap="round" stroke-linejoin="round"/>
<path d="M70.6379 68.4409L65.3271 66.8778L69.0748 65.1641L70.6379 68.4409Z" fill="#233447" stroke="#233447" stroke-width="0.188324" stroke-linecap="round" stroke-linejoin="round"/>
<path d="M78.3403 68.4409L79.9034 65.1641L83.6699 66.8778L78.3403 68.4409Z" fill="#233447" stroke="#233447" stroke-width="0.188324" stroke-linecap="round" stroke-linejoin="round"/>
<path d="M64.6131 78.5913L65.5171 70.9453L59.6226 71.1148L64.6131 78.5913Z" fill="#CD6116" stroke="#CD6116" stroke-width="0.188324" stroke-linecap="round" stroke-linejoin="round"/>
<path d="M83.4839 70.9453L84.3878 78.5913L89.3784 71.1148L83.4839 70.9453Z" fill="#CD6116" stroke="#CD6116" stroke-width="0.188324" stroke-linecap="round" stroke-linejoin="round"/>
<path d="M87.9647 62.5278L77.3809 62.9986L78.3601 68.4412L79.9232 65.1644L83.6897 66.8781L87.9647 62.5278Z" fill="#CD6116" stroke="#CD6116" stroke-width="0.188324" stroke-linecap="round" stroke-linejoin="round"/>
<path d="M65.3299 66.8781L69.0964 65.1644L70.6407 68.4412L71.6388 62.9986L61.0361 62.5278L65.3299 66.8781Z" fill="#CD6116" stroke="#CD6116" stroke-width="0.188324" stroke-linecap="round" stroke-linejoin="round"/>
<path d="M61.0356 62.5283L65.4801 71.1912L65.3294 66.8786L61.0356 62.5283Z" fill="#E4751F" stroke="#E4751F" stroke-width="0.188324" stroke-linecap="round" stroke-linejoin="round"/>
<path d="M83.6917 66.8786L83.5034 71.1912L87.9667 62.5283L83.6917 66.8786Z" fill="#E4751F" stroke="#E4751F" stroke-width="0.188324" stroke-linecap="round" stroke-linejoin="round"/>
<path d="M71.6378 62.999L70.6396 68.4416L71.8826 74.8634L72.1651 66.4077L71.6378 62.999Z" fill="#E4751F" stroke="#E4751F" stroke-width="0.188324" stroke-linecap="round" stroke-linejoin="round"/>
<path d="M77.3805 62.999L76.8721 66.3889L77.0981 74.8634L78.3598 68.4416L77.3805 62.999Z" fill="#E4751F" stroke="#E4751F" stroke-width="0.188324" stroke-linecap="round" stroke-linejoin="round"/>
<path d="M78.3599 68.44L77.0981 74.8619L78.0021 75.4834L83.5012 71.1896L83.6895 66.877L78.3599 68.44Z" fill="#F6851B" stroke="#F6851B" stroke-width="0.188324" stroke-linecap="round" stroke-linejoin="round"/>
<path d="M65.3271 66.877L65.4778 71.1896L70.9769 75.4834L71.8808 74.8619L70.6379 68.44L65.3271 66.877Z" fill="#F6851B" stroke="#F6851B" stroke-width="0.188324" stroke-linecap="round" stroke-linejoin="round"/>
<path d="M78.4546 81.3964L78.5111 79.6449L78.0403 79.2306H70.9405L70.5073 79.6449L70.545 81.3964L64.6128 78.5903L66.6844 80.2852L70.884 83.2043H78.0968L82.3152 80.2852L84.3868 78.5903L78.4546 81.3964Z" fill="#C0AD9E" stroke="#C0AD9E" stroke-width="0.188324" stroke-linecap="round" stroke-linejoin="round"/>
<path d="M78.0021 75.4833L77.0982 74.8618H71.8816L70.9776 75.4833L70.5068 79.6452L70.94 79.2309H78.0398L78.5106 79.6452L78.0021 75.4833Z" fill="#161616" stroke="#161616" stroke-width="0.188324" stroke-linecap="round" stroke-linejoin="round"/>
<path d="M96.9107 53.5066L98.5114 45.823L96.1197 38.6855L78.0029 52.1319L84.9709 58.0264L94.8203 60.9078L97.0048 58.3654L96.0632 57.6874L97.5698 56.3127L96.4022 55.4087L97.9088 54.2599L96.9107 53.5066Z" fill="#763D16" stroke="#763D16" stroke-width="0.188324" stroke-linecap="round" stroke-linejoin="round"/>
<path d="M50.4893 45.823L52.09 53.5066L51.0731 54.2599L52.5797 55.4087L51.4309 56.3127L52.9375 57.6874L51.9958 58.3654L54.1616 60.9078L64.0109 58.0264L70.9789 52.1319L52.8621 38.6855L50.4893 45.823Z" fill="#763D16" stroke="#763D16" stroke-width="0.188324" stroke-linecap="round" stroke-linejoin="round"/>
<path d="M94.8202 60.9077L84.9709 58.0264L87.9652 62.5273L83.502 71.1902L89.3777 71.1149H98.1347L94.8202 60.9077Z" fill="#F6851B" stroke="#F6851B" stroke-width="0.188324" stroke-linecap="round" stroke-linejoin="round"/>
<path d="M64.01 58.0264L54.1606 60.9077L50.8838 71.1149H59.622L65.4789 71.1902L61.0344 62.5273L64.01 58.0264Z" fill="#F6851B" stroke="#F6851B" stroke-width="0.188324" stroke-linecap="round" stroke-linejoin="round"/>
<path d="M77.3817 62.9975L78.0031 52.1312L80.8657 44.3911H68.1538L70.9787 52.1312L71.6378 62.9975L71.8638 66.425L71.8826 74.8619H77.0992L77.1369 66.425L77.3817 62.9975Z" fill="#F6851B" stroke="#F6851B" stroke-width="0.188324" stroke-linecap="round" stroke-linejoin="round"/>
<defs>
<filter id="filter0_f" x="0.750977" y="0.992188" width="146.955" height="159.008" filterUnits="userSpaceOnUse" color-interpolation-filters="sRGB">
<feFlood flood-opacity="0" result="BackgroundImageFix"/>
<feBlend mode="normal" in="SourceGraphic" in2="BackgroundImageFix" result="shape"/>
<feGaussianBlur stdDeviation="15" result="effect1_foregroundBlur"/>
</filter>
<linearGradient id="paint0_linear" x1="43.4319" y1="5.87627" x2="192.476" y2="255.988" gradientUnits="userSpaceOnUse">
<stop stop-color="#FFFBF7"/>
<stop offset="1" stop-color="#FFDFC1"/>
</linearGradient>
<linearGradient id="paint1_linear" x1="38.0664" y1="-29.7023" x2="213.937" y2="266.801" gradientUnits="userSpaceOnUse">
<stop stop-color="#FFFBF7"/>
<stop offset="1" stop-color="#FFDFC1"/>
</linearGradient>
</defs>
</svg>
