<svg width="208" height="220" viewBox="0 0 208 220" fill="none" xmlns="http://www.w3.org/2000/svg">
  <g filter="url(#filter0_f)">
    <rect
      x="60.7485"
      y="60.9932"
      width="86.9536"
      height="99.0066"
      rx="16"
      fill="url(#paint0_linear)"
      fill-opacity="0.9"
    />
  </g>
  <g filter="url(#filter1_d)">
    <rect x="53" y="30" width="103.311" height="117.086" rx="20" fill="url(#paint1_linear)" />
    <rect x="54" y="31" width="101.311" height="115.086" rx="19" stroke="url(#paint2_linear)" stroke-width="2" />
  </g>
  <path
    d="M114.873 53.2451H95.2492C92.9498 53.248 90.7455 54.1682 89.1196 55.8039C87.4937 57.4397 86.579 59.6573 86.5762 61.9706V128.812C86.5769 131.127 87.4904 133.347 89.1164 134.986C90.7424 136.624 92.9479 137.546 95.2492 137.551H114.857C117.16 137.548 119.369 136.626 120.999 134.988C122.628 133.35 123.546 131.129 123.551 128.812V61.9706C123.547 59.6568 122.631 57.4392 121.004 55.8036C119.378 54.168 117.173 53.248 114.873 53.2451"
    fill="white"
  />
  <path
    d="M110.004 68.7023L110.025 68.9741C110.623 69.3248 110.925 69.6102 111.53 70.0016C113.13 71.0128 115.102 72.815 114.851 79.0207C115.3 80.3798 115.499 83.0355 115.913 83.889C116.748 85.5498 117.304 86.6317 117.534 88.2028C117.534 88.2028 117.774 90.6492 118.088 90.8205C119.741 91.1956 119.263 91.3641 119.506 91.6359C119.763 91.9703 120.717 91.954 120.717 92.8483C121.034 93.2757 121.291 93.7449 121.481 94.2427V61.972C121.48 60.2073 120.784 58.515 119.545 57.2654C118.307 56.0158 116.627 55.3107 114.873 55.3042H108.531C109.542 55.6684 110.125 56.0979 110.46 56.7802C111.271 56.8509 112.252 58.6965 110.731 61.4229C111.403 61.8741 110.879 62.5455 110.396 63.3257C110.255 63.5757 110.101 64.0215 109.653 63.9916C109.077 65.2094 108.383 66.3891 107.856 66.4652C107.696 66.6609 107.586 67.1855 107.821 67.4329C108.593 67.7808 109.534 68.2484 109.998 68.7023"
    fill="#C8102E"
  />
  <path
    d="M121.496 98.641C121.121 99.5901 120.509 100.426 119.72 101.069C118.931 101.711 117.991 102.139 116.99 102.31C115.99 102.481 114.962 102.391 114.006 102.047C113.05 101.703 112.198 101.118 111.532 100.347C110.866 99.5762 110.408 98.6459 110.203 97.6457C109.998 96.6454 110.051 95.6089 110.359 94.6357C110.667 93.6625 111.219 92.7853 111.961 92.0887C112.704 91.392 113.612 90.8992 114.598 90.6576C113.917 88.9424 112.477 86.1617 112.05 85.2483C111.623 84.335 110.672 78.6893 110.462 77.5694C110.413 77.3247 107.911 79.0318 107.906 79.1351C107.76 79.2791 106.014 83.8267 105.955 84.0741C105.928 84.3269 105.916 84.581 105.917 84.8352C105.917 84.8352 106.768 84.9412 107.268 86.4362C107.768 87.9312 109.232 93.3758 109.232 93.3758C109.104 93.5181 108.964 93.649 108.813 93.7672C110.683 100.057 110.029 102.765 110.867 104.608C111.921 107.209 112.218 106.866 113.109 109.052C113.755 110.642 114.479 116.905 114.731 117.182C115.741 118.468 116.281 119.473 116.281 120.199C116.281 120.925 115.428 123.086 115.741 124.342C115.927 125.081 116.027 126.737 116.371 127.06C116.371 127.06 116.684 127.682 116.53 127.957C116.484 128.052 116.395 128.199 116.435 128.31C116.992 130.287 118.786 133.654 115.879 135.419H115.941C117.5 135.169 118.918 134.365 119.937 133.153C120.957 131.941 121.51 130.401 121.496 128.813V98.641Z"
    fill="#C8102E"
  />
  <path
    d="M114.027 127.535C112.962 126.579 113.673 126.176 113.632 125.796C112.93 122.876 110.622 121.11 111.817 120.147C111.522 119.182 110.922 117.973 110.944 117.973C107.353 115.899 104.292 112.536 103.773 112.031C103.144 111.343 102.071 110.65 101.882 110.093C101.017 109.294 96.7834 103.251 95.7972 101.025L94.0789 100.78C93.298 97.5671 90.688 94.8761 90.6232 91.6522C90.5989 90.4345 91.1635 87.825 91.3851 87.3031C91.6067 86.7812 92.5928 85.9086 92.5928 85.9086V85.0497C88.8454 85.1557 89.9234 84.7779 89.2749 83.3046C88.8237 82.2907 89.148 82.0678 89.3101 81.3638C89.8153 79.2843 91.4851 76.0796 92.1767 74.6226C92.3875 73.886 93.1116 72.1137 93.1116 72.1137C95.9053 66.3891 96.9482 66.8104 100.266 66.487L100.431 66.2505C103.757 66.1064 103.211 65.8536 103.673 62.6325C103.187 62.8418 103.044 61.6213 103.044 61.6213C102.773 59.7893 103.549 60.1345 103.914 60.0991C103.992 57.0846 104.297 56.136 106.459 55.3042H95.2542C94.383 55.3038 93.5203 55.4762 92.7154 55.8114C91.9105 56.1467 91.1791 56.6382 90.5631 57.2579C89.9471 57.8777 89.4585 58.6135 89.1253 59.4233C88.7921 60.2331 88.6207 61.101 88.6211 61.9774V128.813C88.6204 129.69 88.7915 130.558 89.1245 131.368C89.4576 132.178 89.9461 132.914 90.5621 133.534C91.1782 134.154 91.9097 134.646 92.7148 134.981C93.5199 135.317 94.3828 135.489 95.2542 135.489H114.872C112.624 134.271 113.951 131.947 114.027 127.535Z"
    fill="#1D428A"
  />
  <path
    d="M98.9648 131.292V119.19H101.299C102.65 119.19 103.482 119.919 103.482 121.615V123.409C103.482 124.51 103.15 125.07 102.672 125.341C103.139 125.665 103.482 126.206 103.482 127.122V128.886C103.482 130.544 102.599 131.292 101.299 131.292H98.9648ZM100.567 126.037V129.767H101.183C101.723 129.767 101.883 129.476 101.883 128.9V126.85C101.883 126.257 101.699 126.035 101.167 126.035L100.567 126.037ZM100.567 120.715V124.714H101.167C101.731 124.714 101.883 124.51 101.883 123.849V121.528C101.883 120.968 101.715 120.712 101.183 120.712L100.567 120.715ZM107.251 128.834H105.8L105.598 131.281H103.977L105.428 119.179H107.732L109.135 131.281H107.451L107.251 128.834ZM106.533 120.546H106.449C106.349 122.003 106.149 124.561 106.081 125.377L105.9 127.453H107.151L106.968 125.371C106.9 124.54 106.668 122.014 106.533 120.541V120.546ZM94.1987 131.292H92.791V119.19H95.0092L96.7925 129.103C96.6439 126.733 96.4412 123.868 96.4412 121.427V119.19H97.8435V131.292H95.8144L94.0312 121.596C94.1474 123.833 94.1987 125.613 94.1987 127.478V131.292Z"
    fill="white"
  />
  <path
    fill-rule="evenodd"
    clip-rule="evenodd"
    d="M136 42C131.582 42 128 45.5817 128 50C128 54.4183 131.582 58 136 58C140.418 58 144 54.4183 144 50C144 45.5817 140.418 42 136 42ZM135.544 52.3918L139.344 48.5918C139.616 48.3198 139.616 47.8798 139.344 47.5998C139.072 47.3278 138.624 47.3278 138.352 47.5998L135.048 50.9038L133.648 49.5038C133.376 49.2318 132.928 49.2318 132.656 49.5038C132.384 49.7758 132.384 50.2158 132.656 50.4958L134.56 52.3918C134.696 52.5278 134.872 52.5918 135.048 52.5918C135.232 52.5918 135.408 52.5278 135.544 52.3918Z"
    fill="url(#paint3_linear)"
  />
  <defs>
    <filter
      id="filter0_f"
      x="0.748535"
      y="0.993164"
      width="206.954"
      height="219.007"
      filterUnits="userSpaceOnUse"
      color-interpolation-filters="sRGB"
    >
      <feFlood flood-opacity="0" result="BackgroundImageFix" />
      <feBlend mode="normal" in="SourceGraphic" in2="BackgroundImageFix" result="shape" />
      <feGaussianBlur stdDeviation="30" result="effect1_foregroundBlur" />
    </filter>
    <filter
      id="filter1_d"
      x="49"
      y="26"
      width="111.311"
      height="125.086"
      filterUnits="userSpaceOnUse"
      color-interpolation-filters="sRGB"
    >
      <feFlood flood-opacity="0" result="BackgroundImageFix" />
      <feColorMatrix
        in="SourceAlpha"
        type="matrix"
        values="0 0 0 0 0 0 0 0 0 0 0 0 0 0 0 0 0 0 127 0"
        result="hardAlpha"
      />
      <feMorphology radius="4" operator="dilate" in="SourceAlpha" result="effect1_dropShadow" />
      <feOffset />
      <feComposite in2="hardAlpha" operator="out" />
      <feColorMatrix type="matrix" values="0 0 0 0 0.592157 0 0 0 0 0.337255 0 0 0 0 0.556863 0 0 0 0.17 0" />
      <feBlend mode="normal" in2="BackgroundImageFix" result="effect1_dropShadow" />
      <feBlend mode="normal" in="SourceGraphic" in2="effect1_dropShadow" result="shape" />
    </filter>
    <linearGradient
      id="paint0_linear"
      x1="88.8912"
      y1="55.0289"
      x2="147.063"
      y2="173.077"
      gradientUnits="userSpaceOnUse"
    >
      <stop stop-color="#A59DFA" />
      <stop offset="1" stop-color="#F3CFBF" />
    </linearGradient>
    <linearGradient
      id="paint1_linear"
      x1="82.702"
      y1="13.2119"
      x2="195.429"
      y2="292.979"
      gradientUnits="userSpaceOnUse"
    >
      <stop stop-color="#FFDBE1" />
      <stop offset="1" stop-color="#B8D0FF" />
    </linearGradient>
    <linearGradient
      id="paint2_linear"
      x1="2.31899"
      y1="-872.539"
      x2="504.23"
      y2="-704.543"
      gradientUnits="userSpaceOnUse"
    >
      <stop offset="0.269137" stop-color="#FFD0BC" />
      <stop offset="1" stop-color="#963ACF" />
    </linearGradient>
    <linearGradient
      id="paint3_linear"
      x1="120.151"
      y1="-81.3333"
      x2="195.717"
      y2="-52.6679"
      gradientUnits="userSpaceOnUse"
    >
      <stop offset="0.269137" stop-color="#FFD0BC" />
      <stop offset="1" stop-color="#963ACF" />
    </linearGradient>
  </defs>
</svg>
