<svg width="152" height="164" viewBox="0 -2 152 164" fill="none" xmlns="http://www.w3.org/2000/svg">
<g filter="url(#filter0_f)">
<rect x="32.7483" y="32.9932" width="86.9536" height="99.0066" rx="20" fill="url(#paint0_linear)"/>
</g>
<rect x="25" y="2" width="103.311" height="117.086" rx="20" fill="url(#paint1_linear)"/>
<g filter="url(#filter1_d)">
<path d="M91.157 48.7961C90.1212 48.2101 88.7894 48.2101 87.6056 48.7961L79.3192 53.6301L73.6963 56.7063L65.5578 61.5404C64.522 62.1263 63.1903 62.1263 62.0065 61.5404L55.6437 57.7317C54.6079 57.1458 53.868 55.9739 53.868 54.6555V47.3312C53.868 46.1593 54.4599 44.9874 55.6437 44.255L62.0065 40.5929C63.0423 40.0069 64.374 40.0069 65.5578 40.5929L71.9206 44.4015C72.9564 44.9874 73.6963 46.1593 73.6963 47.4777V52.3117L79.3192 49.0891V44.1085C79.3192 42.9366 78.7273 41.7647 77.5435 41.0323L65.7058 34.1475C64.67 33.5615 63.3382 33.5615 62.1545 34.1475L50.0208 41.1788C48.837 41.7647 48.2451 42.9366 48.2451 44.1085V57.8782C48.2451 59.0501 48.837 60.222 50.0208 60.9544L62.0065 67.8393C63.0423 68.4252 64.374 68.4252 65.5578 67.8393L73.6963 63.1517L79.3192 59.929L87.4577 55.2415C88.4935 54.6555 89.8252 54.6555 91.009 55.2415L97.3718 58.9036C98.4076 59.4896 99.1474 60.6615 99.1474 61.9798V69.3041C99.1474 70.476 98.5555 71.6479 97.3718 72.3803L91.157 76.0425C90.1212 76.6284 88.7894 76.6284 87.6056 76.0425L81.2428 72.3803C80.207 71.7944 79.4672 70.6225 79.4672 69.3041V64.6166L73.8442 67.8393V72.6733C73.8442 73.8452 74.4361 75.0171 75.6199 75.7495L87.6056 82.6344C88.6414 83.2203 89.9732 83.2203 91.157 82.6344L103.143 75.7495C104.178 75.1636 104.918 73.9917 104.918 72.6733V58.7571C104.918 57.5852 104.326 56.4134 103.143 55.6809L91.157 48.7961Z" fill="#8247E5"/>
</g>
<path fill-rule="evenodd" clip-rule="evenodd" d="M108 14C103.582 14 100 17.5817 100 21.9999C100 26.4181 103.582 29.9998 108 29.9998C112.418 29.9998 116 26.4181 116 21.9999C116 17.5817 112.418 14 108 14ZM108 15.5999C104.465 15.5999 101.6 18.4652 101.6 21.9998C101.6 25.5344 104.465 28.3997 108 28.3997C111.535 28.3997 114.4 25.5344 114.4 21.9998C114.4 18.4652 111.535 15.5999 108 15.5999Z" fill="#58536D" fill-opacity="0.36"/>
<defs>
<filter id="filter0_f" x="0.748291" y="0.993164" width="150.954" height="163.007" filterUnits="userSpaceOnUse" color-interpolation-filters="sRGB">
<feFlood flood-opacity="0" result="BackgroundImageFix"/>
<feBlend mode="normal" in="SourceGraphic" in2="BackgroundImageFix" result="shape"/>
<feGaussianBlur stdDeviation="16" result="effect1_foregroundBlur"/>
</filter>
<filter id="filter1_d" x="34.2451" y="33.708" width="84.6732" height="78.3658" filterUnits="userSpaceOnUse" color-interpolation-filters="sRGB">
<feFlood flood-opacity="0" result="BackgroundImageFix"/>
<feColorMatrix in="SourceAlpha" type="matrix" values="0 0 0 0 0 0 0 0 0 0 0 0 0 0 0 0 0 0 127 0" result="hardAlpha"/>
<feOffset dy="15"/>
<feGaussianBlur stdDeviation="7"/>
<feComposite in2="hardAlpha" operator="out"/>
<feColorMatrix type="matrix" values="0 0 0 0 0.717647 0 0 0 0 0.580392 0 0 0 0 0.94902 0 0 0 0.8 0"/>
<feBlend mode="normal" in2="BackgroundImageFix" result="effect1_dropShadow"/>
<feBlend mode="normal" in="SourceGraphic" in2="effect1_dropShadow" result="shape"/>
</filter>
<linearGradient id="paint0_linear" x1="60.891" y1="27.0289" x2="119.063" y2="145.077" gradientUnits="userSpaceOnUse">
<stop stop-color="#F8F3FF"/>
<stop offset="1" stop-color="#D4BBFF"/>
</linearGradient>
<linearGradient id="paint1_linear" x1="50.3974" y1="-18.6623" x2="170.154" y2="238.235" gradientUnits="userSpaceOnUse">
<stop stop-color="#F8F3FF"/>
<stop offset="1" stop-color="#D4BBFF"/>
</linearGradient>
</defs>
</svg>
