<?xml version="1.0" encoding="UTF-8"?>
<svg width="438px" height="993px" viewBox="0 0 438 993" version="1.1" xmlns="http://www.w3.org/2000/svg" xmlns:xlink="http://www.w3.org/1999/xlink">
    <title>oval-1</title>
    <defs>
        <rect id="path-1" x="0" y="0" width="438" height="993"></rect>
        <linearGradient x1="85.4166468%" y1="123.232449%" x2="-52.0753864%" y2="-139.474898%" id="linearGradient-3">
            <stop stop-color="#EEEDFF" stop-opacity="0" offset="0%"></stop>
            <stop stop-color="#7258FF" stop-opacity="0.33" offset="100%"></stop>
        </linearGradient>
    </defs>
    <g id="Page-1" stroke="none" stroke-width="1" fill="none" fill-rule="evenodd">
        <g id="oval-1">
            <mask id="mask-2" fill="white">
                <use xlink:href="#path-1"></use>
            </mask>
            <g id="Rectangle"></g>
            <g id="Oval" mask="url(#mask-2)">
                <path d="M0,496.29999 C0,222.21699 225.31899,0 503.29999,0 C781.28099,0 1006.59999,222.21699 1006.59999,496.29999 C1006.59999,770.38299 781.28099,992.59999 503.29999,992.59999 C471.68999,992.59999 445.36499,986.01399 422.49999,973.52499 C399.62799,961.03199 380.15299,942.59699 362.29899,918.80599 C328.09999,873.23599 299.97799,808.21299 265.32999,728.09999 C263.76299,724.47599 262.18199,720.82199 260.58699,717.13699 C246.66899,684.98099 223.25699,664.38799 196.07599,649.25199 C173.30699,636.57199 147.81899,627.68699 123.02999,619.04599 C118.27599,617.38899 113.54699,615.74099 108.86799,614.07599 C79.71859,603.70599 52.51049,592.71599 32.57319,575.08899 C12.71119,557.52899 0,533.31799 0,496.29999 Z" id="Path" stroke-opacity="0.06" stroke="#2D294C" stroke-width="2.4"></path>
                <path d="M431.29999,65.79999 C199.06399,65.79999 10.79999,251.37799 10.79999,480.29999 C10.79999,604.76099 139.97199,588.71199 228.08099,664.69099 C302.03199,728.45999 325.32699,894.79999 431.29999,894.79999 C663.53599,894.79999 851.79999,709.22199 851.79999,480.29999 C851.79999,251.37799 663.53599,65.79999 431.29999,65.79999 Z" id="Path" fill="url(#linearGradient-3)" fill-rule="nonzero"></path>
            </g>
        </g>
    </g>
</svg>