<svg width="400" height="833" viewBox="0 0 400 833" fill="none" xmlns="http://www.w3.org/2000/svg">
<path opacity="0.2" d="M407.5 30C222.208 30 72 177.97 72 360.5C72 459.738 175.061 446.942 245.36 507.523C304.362 558.37 322.948 691 407.5 691C592.792 691 743 543.03 743 360.5C743 177.97 592.792 30 407.5 30Z" fill="white" stroke="#AFB1C7" stroke-width="2.6"/>
<path opacity="0.2" d="M422.5 2C190.264 2 2 187.578 2 416.5C2 540.961 131.172 524.912 219.281 600.891C293.232 664.66 316.527 831 422.5 831C654.736 831 843 645.422 843 416.5C843 187.578 654.736 2 422.5 2Z" stroke="#AFB1C7" stroke-width="2.6"/>
</svg>
