<svg width="504" height="866" viewBox="0 0 504 866" fill="none" xmlns="http://www.w3.org/2000/svg">
<path d="M467.948 451.414C467.948 565.599 429.694 659.356 362.576 724.567C295.455 789.782 199.362 826.55 83.5 826.55C-148.249 826.55 -335.8 679.51 -335.8 451.414C-335.8 223.037 -147.961 1.2 83.5 1.2C109.568 1.2 131.859 13.6875 151.844 33.6048C171.843 53.5357 189.439 80.8162 206.089 110.19C214.052 124.237 221.787 138.742 229.461 153.133L230.498 155.077C238.509 170.098 246.462 184.966 254.531 198.997C270.656 227.033 287.314 251.848 305.966 267.932C328.075 286.997 349.311 300.283 368.698 311.426C373.876 314.402 378.913 317.221 383.795 319.953C397.229 327.47 409.491 334.332 420.295 342.016C434.977 352.459 446.856 364.352 455.085 381.305C463.321 398.274 467.948 420.412 467.948 451.414Z" stroke="#963ACF" stroke-opacity="0.1" stroke-width="2.4"/>
<path d="M83.5 865.914C315.736 865.914 504 680.336 504 451.414C504 326.953 374.828 343.002 286.719 267.023C212.768 203.254 189.473 36.9141 83.5 36.9141C-148.736 36.9141 -337 222.492 -337 451.414C-337 680.336 -148.736 865.914 83.5 865.914Z" fill="url(#paint0_linear)"/>
<defs>
<linearGradient id="paint0_linear" x1="-337" y1="36.9141" x2="-337" y2="865.914" gradientUnits="userSpaceOnUse">
<stop stop-color="#F9DBE4"/>
<stop offset="1" stop-color="white" stop-opacity="0"/>
</linearGradient>
</defs>
</svg>
