<svg width="769" height="900" viewBox="0 0 769 900" fill="none" xmlns="http://www.w3.org/2000/svg">
<path d="M717.518 426.671C717.518 588.742 663.221 721.817 567.956 814.376C472.686 906.94 336.295 959.127 171.844 959.127C-157.092 959.127 -423.297 750.424 -423.297 426.671C-423.297 102.52 -156.684 -212.348 171.844 -212.348C208.844 -212.348 240.483 -194.624 268.849 -166.354C297.235 -138.064 322.211 -99.3434 345.844 -57.6512C357.146 -37.7123 368.125 -17.1239 379.018 3.30237L380.488 6.05942C391.859 27.3798 403.147 48.4836 414.601 68.398C437.488 108.191 461.131 143.413 487.606 166.243C518.986 193.303 549.128 212.161 576.645 227.977C583.994 232.201 591.144 236.202 598.073 240.079C617.141 250.749 634.545 260.488 649.88 271.395C670.72 286.217 687.58 303.098 699.259 327.16C710.95 351.246 717.518 382.668 717.518 426.671Z" stroke="#A3BBBB" stroke-opacity="0.5" stroke-width="3.40648"/>
<path d="M171.844 1015C501.472 1015 768.688 751.595 768.688 426.671C768.688 250.015 585.346 272.794 460.286 164.953C355.323 74.4402 322.259 -161.657 171.844 -161.657C-157.784 -161.657 -425 101.746 -425 426.671C-425 751.595 -157.784 1015 171.844 1015Z" fill="url(#paint0_linear)"/>
<defs>
<linearGradient id="paint0_linear" x1="-425" y1="-161.657" x2="-425" y2="1015" gradientUnits="userSpaceOnUse">
<stop stop-color="#D5E1E1"/>
<stop offset="1" stop-color="white" stop-opacity="0"/>
</linearGradient>
</defs>
</svg>
