<svg width="582" height="919" viewBox="0 0 582 919" fill="none" xmlns="http://www.w3.org/2000/svg">
<path d="M538.832 422.575C538.832 559.298 493.027 671.561 412.662 749.644C332.292 827.731 217.231 871.757 78.5 871.757C-198.992 871.757 -423.563 695.694 -423.563 422.575C-423.563 149.12 -198.648 -116.504 78.5 -116.504C109.713 -116.504 136.404 -101.552 160.334 -77.7034C184.28 -53.8385 205.35 -21.1733 225.287 13.9984C234.822 30.8192 244.084 48.188 253.273 65.42L254.513 67.7449C264.105 85.7309 273.628 103.534 283.29 120.334C302.598 153.904 322.543 183.617 344.878 202.877C371.35 225.704 396.778 241.613 419.992 254.955C426.192 258.519 432.223 261.894 438.068 265.165C454.154 274.166 468.836 282.382 481.773 291.583C499.353 304.087 513.577 318.328 523.429 338.627C533.292 358.946 538.832 385.453 538.832 422.575Z" stroke="#A3BBBB" stroke-opacity="0.5" stroke-width="2.87372"/>
<path d="M78.5 918.89C356.575 918.89 582 696.682 582 422.575C582 273.547 427.332 292.764 321.831 201.788C233.283 125.432 205.391 -73.741 78.5 -73.741C-199.575 -73.741 -425 148.467 -425 422.575C-425 696.682 -199.575 918.89 78.5 918.89Z" fill="url(#paint0_linear)"/>
<defs>
<linearGradient id="paint0_linear" x1="-425" y1="-73.741" x2="-425" y2="918.891" gradientUnits="userSpaceOnUse">
<stop stop-color="#D5E1E1"/>
<stop offset="1" stop-color="white" stop-opacity="0"/>
</linearGradient>
</defs>
</svg>
