<svg width="438" height="841" viewBox="0 0 438 841" fill="none" xmlns="http://www.w3.org/2000/svg">
<path d="M1.20001 343.5C1.20001 69.4168 226.519 -152.8 504.5 -152.8C782.481 -152.8 1007.8 69.4168 1007.8 343.5C1007.8 617.583 782.481 839.8 504.5 839.8C472.89 839.8 446.565 833.214 423.7 820.725C400.828 808.232 381.353 789.797 363.499 766.006C329.3 720.436 301.178 655.413 266.53 575.3C264.963 571.676 263.382 568.022 261.787 564.337C247.869 532.181 224.457 511.588 197.276 496.452C174.507 483.772 149.019 474.887 124.23 466.246C119.476 464.589 114.747 462.941 110.068 461.276C80.9186 450.906 53.7105 439.916 33.7732 422.289C13.9112 404.729 1.20001 380.518 1.20001 343.5Z" stroke="#2D294C" stroke-opacity="0.06" stroke-width="2.4"/>
<path d="M432.5 -87C200.264 -87 12 98.578 12 327.5C12 451.961 141.172 435.912 229.281 511.891C303.232 575.66 326.527 742 432.5 742C664.736 742 853 556.422 853 327.5C853 98.578 664.736 -87 432.5 -87Z" fill="url(#paint0_linear)"/>
<defs>
<linearGradient id="paint0_linear" x1="730.354" y1="952.298" x2="-425.954" y2="-1289.05" gradientUnits="userSpaceOnUse">
<stop stop-color="#EEEDFF" stop-opacity="0"/>
<stop offset="1" stop-color="#7258FF" stop-opacity="0.33"/>
</linearGradient>
</defs>
</svg>
