<svg width="165" height="183" viewBox="0 0 165 183" fill="none" xmlns="http://www.w3.org/2000/svg">
<g filter="url(#filter0_f)">
<rect x="32" y="36" width="101" height="115" rx="20" fill="url(#paint0_linear)" fill-opacity="0.6"/>
</g>
<rect x="23" width="120" height="136" rx="20" fill="url(#paint1_linear)"/>
<g filter="url(#filter1_d)">
<path d="M82.5061 34.2184C84.2715 33.3082 86.4265 35.4197 85.4885 37.1636C84.9438 38.5851 82.8783 38.9631 81.8232 37.8795C80.7054 36.8396 81.0699 34.7842 82.5061 34.2184ZM63.5176 36.2422C64.5901 35.8057 65.9476 36.7771 65.8383 37.9328C65.9521 39.1873 64.4005 40.1107 63.3074 39.5145C61.8592 38.9599 62.0248 36.6354 63.5176 36.2422ZM102.408 39.5497C100.732 39.3495 100.467 36.7443 102.081 36.2197C103.332 35.6163 104.48 36.7479 104.663 37.9208C104.401 38.9223 103.553 39.8392 102.408 39.5497ZM67.8382 44.2328C69.6311 43.1116 72.1895 44.7814 71.9137 46.8404C71.8205 48.9195 69.0277 50.124 67.4518 48.7184C65.9282 47.6145 66.159 45.0817 67.8382 44.2328ZM95.2085 45.4225C96.0084 43.3843 99.2496 43.3226 100.16 45.3068C101.06 46.8508 99.9531 48.7629 98.3497 49.2879C96.2258 49.6799 94.2085 47.4098 95.2085 45.4225ZM80.2194 49.1721C80.202 47.4202 81.8159 46.1148 83.4999 45.9955C84.6169 46.2169 85.8344 46.6875 86.3135 47.8019C87.2065 49.3391 86.4135 51.4558 84.8 52.1614C84.0621 52.5702 83.1897 52.4168 82.3862 52.3692C81.1578 51.7729 80.1234 50.6037 80.2194 49.1721ZM51.9808 51.7249C53.6186 50.7294 55.8283 52.5462 55.2082 54.3053C54.8668 55.8269 52.7981 56.446 51.6155 55.4746C50.3531 54.5644 50.5532 52.376 51.9808 51.7249ZM112.619 51.7217C114.009 50.6549 116.302 51.8787 116.136 53.6133C116.23 55.195 114.247 56.3879 112.868 55.5735C111.349 54.8983 111.193 52.5874 112.619 51.7217ZM88.1607 54.8711C90.4538 54.0566 93.1774 55.0313 94.4843 57.0527C96.2084 59.5237 95.2911 63.287 92.6157 64.7049C89.8434 66.3819 85.7955 64.9604 84.7716 61.8995C83.6093 59.1593 85.3026 55.73 88.1607 54.8711ZM74.7066 55.1406C77.2479 53.9545 80.6682 54.9496 81.8957 57.52C83.3404 60.0219 82.2234 63.5056 79.6407 64.7974C77.0548 66.2494 73.4065 65.1486 72.1551 62.4625C70.7517 59.8649 71.9979 56.3367 74.7066 55.1406ZM61.2351 59.6943C61.4282 58.0754 62.9729 57.0218 64.5313 56.9129C66.2105 57.1131 67.5518 58.4025 67.7345 60.0827C67.6243 61.7461 66.3243 63.3719 64.5415 63.3619C62.5801 63.5289 60.8604 61.5996 61.2351 59.6943ZM101.025 57.2649C103.039 56.106 105.835 57.7931 105.746 60.0803C105.884 62.5038 102.789 64.2116 100.784 62.7901C98.7012 61.6064 98.8636 58.2728 101.025 57.2649ZM69.2314 65.8061C71.5864 65.1654 74.2793 66.263 75.4344 68.4033C76.6996 70.5577 76.1824 73.5505 74.2173 75.1306C71.697 77.4483 67.0488 76.5177 65.7075 73.3547C64.166 70.4552 66.0384 66.5693 69.2314 65.8061ZM94.75 65.7941C97.0395 65.1466 99.7291 66.0192 100.96 68.0814C102.587 70.4399 101.81 73.9577 99.3877 75.4782C96.8499 77.2437 92.919 76.3167 91.5226 73.5561C89.8297 70.7006 91.5331 66.6651 94.75 65.7941ZM54.084 68.485C56.1183 67.7242 58.3733 69.9438 57.5491 71.938C57.0457 73.7547 54.4562 74.4262 53.1184 73.0868C51.5531 71.829 52.1327 69.0304 54.084 68.485ZM109.225 71.3789C109.166 69.7123 110.399 68.2364 112.128 68.1443C113.521 68.3625 114.876 69.4737 114.766 70.9733C114.893 72.9539 112.479 74.3001 110.773 73.3695C109.973 72.9675 109.562 72.1562 109.225 71.3789ZM44.0813 69.4633C45.3052 68.9351 46.8191 69.9838 46.5396 71.3277C46.474 72.8493 44.202 73.4344 43.3673 72.163C42.6298 71.28 43.0712 69.9186 44.0813 69.4633ZM121.251 69.4328C122.113 68.8262 123.496 69.2623 123.837 70.2577C124.416 71.3449 123.354 72.8345 122.117 72.6507C120.379 72.8073 119.817 70.1893 121.251 69.4328ZM75.879 76.7371C79.0996 75.909 82.5615 78.5643 82.5818 81.8431C82.792 85.1562 79.3823 88.0942 76.0856 87.329C73.5373 86.9234 71.5378 84.4963 71.6205 81.9504C71.6136 79.5153 73.4721 77.2521 75.879 76.7371ZM88.6333 76.7303C91.9021 75.827 95.4673 78.5299 95.4154 81.8843C95.588 85.1362 92.2848 87.9753 89.0569 87.3302C86.0194 86.9418 83.7782 83.6422 84.6262 80.7279C85.0543 78.7858 86.6954 77.2064 88.6333 76.7303ZM64.0421 78.7485C66.304 78.3669 68.4246 80.862 67.5073 82.9855C66.8382 85.2483 63.5075 85.8622 62.0349 84.0138C60.3076 82.2387 61.5971 78.9936 64.0421 78.7485ZM101.446 78.8482C103.463 78.0129 105.939 79.738 105.783 81.9023C105.864 84.2849 102.808 85.9279 100.836 84.5372C98.6016 83.2886 99.0082 79.6143 101.446 78.8482ZM111.901 89.2162C111.111 87.7607 112.545 85.8314 114.18 86.1009C114.994 86.0872 115.563 86.7211 116.083 87.2529C116.19 88.1154 116.37 89.1446 115.646 89.8093C114.662 91.0398 112.435 90.6886 111.901 89.2162ZM51.9739 86.5061C53.5016 85.5006 55.6999 87.0002 55.3565 88.7661C55.1738 90.3278 53.1841 91.2204 51.8735 90.3342C50.4669 89.5298 50.5188 87.2393 51.9739 86.5061ZM82.1545 89.7752C84.1544 88.9027 86.7023 90.6242 86.5127 92.8021C86.661 95.2087 83.5097 96.8753 81.5543 95.4301C79.3823 94.1892 79.7444 90.5385 82.1545 89.7752ZM68.1759 92.9995C69.8794 92.1134 72.1652 93.6438 72.0101 95.5287C72.0619 97.0763 70.5343 98.3954 68.9896 98.1667C67.7102 98.1395 66.8759 97.0055 66.4656 95.9271C66.4867 94.7518 66.9759 93.4428 68.1759 92.9995ZM96.4911 93.0267C98.2427 91.9564 100.732 93.4937 100.567 95.5094C100.612 97.6161 97.7981 98.9656 96.1671 97.5817C94.588 96.4969 94.7808 93.8893 96.4911 93.0267ZM101.415 105.063C100.636 103.897 101.553 102.493 102.818 102.227C103.836 102.431 104.911 103.188 104.698 104.354C104.549 105.932 102.215 106.416 101.415 105.063ZM62.3281 104.05C62.6384 103.126 63.3901 102.208 64.49 102.449C66.0934 102.561 66.5693 104.95 65.166 105.687C63.904 106.528 62.4399 105.376 62.3281 104.05ZM81.1854 105.11C81.4923 103.744 83.2816 103.079 84.461 103.805C85.2402 104.136 85.4678 104.998 85.6679 105.73C85.561 106.112 85.4654 106.494 85.3714 106.876C84.8887 107.442 84.2682 108.007 83.4647 107.987C81.9715 108.16 80.6244 106.491 81.1854 105.11Z" fill="#095FAC"/>
</g>
<defs>
<filter id="filter0_f" x="0" y="4" width="165" height="179" filterUnits="userSpaceOnUse" color-interpolation-filters="sRGB">
<feFlood flood-opacity="0" result="BackgroundImageFix"/>
<feBlend mode="normal" in="SourceGraphic" in2="BackgroundImageFix" result="shape"/>
<feGaussianBlur stdDeviation="16" result="effect1_foregroundBlur"/>
</filter>
<filter id="filter1_d" x="30.9998" y="33.9994" width="105" height="100" filterUnits="userSpaceOnUse" color-interpolation-filters="sRGB">
<feFlood flood-opacity="0" result="BackgroundImageFix"/>
<feColorMatrix in="SourceAlpha" type="matrix" values="0 0 0 0 0 0 0 0 0 0 0 0 0 0 0 0 0 0 127 0" result="hardAlpha"/>
<feOffset dy="14"/>
<feGaussianBlur stdDeviation="6"/>
<feComposite in2="hardAlpha" operator="out"/>
<feColorMatrix type="matrix" values="0 0 0 0 0.0352941 0 0 0 0 0.372549 0 0 0 0 0.67451 0 0 0 0.32 0"/>
<feBlend mode="normal" in2="BackgroundImageFix" result="effect1_dropShadow"/>
<feBlend mode="normal" in="SourceGraphic" in2="effect1_dropShadow" result="shape"/>
</filter>
<linearGradient id="paint0_linear" x1="65.2458" y1="36" x2="177.472" y2="266.32" gradientUnits="userSpaceOnUse">
<stop stop-color="#F4FAFF"/>
<stop offset="1" stop-color="#A7D5FF"/>
</linearGradient>
<linearGradient id="paint1_linear" x1="62.5" y1="2.28299e-06" x2="194.839" y2="272.863" gradientUnits="userSpaceOnUse">
<stop stop-color="#F4FAFF"/>
<stop offset="1" stop-color="#A7D5FF"/>
</linearGradient>
</defs>
</svg>
