<svg width="165" height="183" viewBox="0 0 165 183" fill="none" xmlns="http://www.w3.org/2000/svg">
  <g filter="url(#filter0_f)">
    <rect x="32" y="36" width="101" height="115" rx="20" fill="url(#paint0_linear)" fill-opacity="0.6" />
  </g>
  <rect x="23" width="120" height="136" rx="20" fill="url(#paint1_linear)" />
  <g filter="url(#filter1_d)">
    <path
      fill-rule="evenodd"
      clip-rule="evenodd"
      d="M56.7995 55H46.2504L46.3035 55.0005C44.8893 60.1373 43.4739 65.2739 42.0585 70.4104C41.1566 73.6835 40.2547 76.9566 39.3531 80.2297C39.329 80.3217 39.3032 80.4136 39.2772 80.5055L39.2772 80.5056C39.1795 80.8524 39.0813 81.2009 39.0796 81.5638C39.0794 81.6138 39.0787 81.664 39.0781 81.7143C39.0738 82.0516 39.0695 82.3936 39.1726 82.7177C39.4125 83.5847 40.0024 84.3223 40.7356 84.8231C41.8532 85.6061 43.2262 85.9156 44.5668 86H58.1523L58.1877 85.9976C59.3165 85.9225 60.4532 85.8469 61.5545 85.5703C62.3413 85.3773 63.1218 85.0748 63.7451 84.5409C64.5882 83.8369 65.1186 82.8262 65.4398 81.7872C65.5965 81.251 65.744 80.712 65.8914 80.173L65.8914 80.173L65.8915 80.1729C65.9789 79.8535 66.0662 79.5341 66.1555 79.2153C67.0372 76.0199 67.9181 72.8244 68.7989 69.629C70.1432 64.7523 71.4875 59.8758 72.8347 55H62.3477C61.132 59.3943 59.9205 63.7899 58.709 68.1854L58.708 68.1893L58.705 68.1999L58.7048 68.2006C57.8002 71.4827 56.8956 74.7648 55.9893 78.0464C55.8847 78.4397 55.6442 78.8278 55.2534 78.9817C54.7431 79.1782 54.1899 79.1789 53.6494 79.1795C53.5915 79.1796 53.5338 79.1797 53.4764 79.18C53.2666 79.1784 53.0569 79.1792 52.8473 79.1799H52.8469C52.5085 79.1812 52.1703 79.1825 51.8321 79.1736C51.3707 79.1479 50.8653 78.9871 50.5993 78.5808C50.4347 78.3387 50.4373 78.0266 50.5265 77.7572C51.4615 74.3694 52.3946 70.9811 53.3277 67.5929L53.3281 67.5914L53.3285 67.5899C54.4843 63.3929 55.6401 59.1959 56.7995 55ZM100.495 55H77.8249C77.3703 56.6325 76.9206 58.2663 76.471 59.9001C76.2957 60.5371 76.1204 61.174 75.9448 61.8109H75.9452H75.9456H75.946C83.5029 61.8114 91.0593 61.812 98.6161 61.8104C98.8654 60.908 99.1138 60.0055 99.3622 59.1029L99.3625 59.1017L99.3629 59.1002L99.3636 59.098C99.7396 57.7316 100.116 56.3653 100.495 55ZM110.73 55H127.928C127.773 55.6413 127.595 56.2769 127.416 56.9126L127.416 56.9127C127.308 57.2979 127.2 57.6831 127.097 58.0695L127.083 58.1218C126.744 59.3513 126.405 60.5808 126.066 61.8104C123.94 61.811 121.813 61.8109 119.687 61.8108C118.092 61.8108 116.498 61.8107 114.903 61.8109L114.832 61.8115C114.309 61.8157 113.77 61.8201 113.279 62.0231C112.862 62.2006 112.645 62.6404 112.539 63.06C112.073 64.7538 111.606 66.4477 111.139 68.1416L111.104 68.2676L111.091 68.3174C110.215 71.4937 109.34 74.6701 108.466 77.8465C108.367 78.1527 108.452 78.5028 108.678 78.7294C109.011 79.072 109.509 79.1795 109.969 79.1795C111.994 79.18 114.02 79.18 116.045 79.18H116.067C118.087 79.18 120.107 79.18 122.127 79.1805C121.657 80.8895 121.186 82.5984 120.714 84.3074L120.248 86H103.023C101.733 85.9177 100.417 85.6307 99.3212 84.9097C98.6023 84.4468 97.9976 83.7744 97.7082 82.9583C97.4428 82.2576 97.4651 81.4767 97.6658 80.7626C99.6127 73.6999 101.56 66.6373 103.508 59.5746C103.791 58.5356 104.241 57.511 105.003 56.7355C105.505 56.2165 106.144 55.8445 106.825 55.6179C108.082 55.1913 109.415 55.0877 110.73 55ZM97.305 66.5123C89.7512 66.5118 82.1973 66.5113 74.6435 66.5123C74.0021 68.8389 73.3613 71.1655 72.7205 73.4921C71.572 77.6617 70.4236 81.8312 69.2721 86.0001H79.8349L79.7633 85.9996C80.3452 83.8897 80.9264 81.7797 81.5076 79.6697C82.0889 77.5597 82.6701 75.4497 83.252 73.3398C85.0976 73.3393 86.9431 73.3394 88.7886 73.3395C91.0044 73.3395 93.2203 73.3396 95.4363 73.3387L95.4482 73.2956C96.0718 71.0347 96.6954 68.7738 97.3185 66.5123H97.305Z"
      fill="#D20A0A"
    />
  </g>
  <defs>
    <filter
      id="filter0_f"
      x="0"
      y="4"
      width="165"
      height="179"
      filterUnits="userSpaceOnUse"
      color-interpolation-filters="sRGB"
    >
      <feFlood flood-opacity="0" result="BackgroundImageFix" />
      <feBlend mode="normal" in="SourceGraphic" in2="BackgroundImageFix" result="shape" />
      <feGaussianBlur stdDeviation="16" result="effect1_foregroundBlur" />
    </filter>
    <filter
      id="filter1_d"
      x="27.0764"
      y="55"
      width="112.851"
      height="56.0001"
      filterUnits="userSpaceOnUse"
      color-interpolation-filters="sRGB"
    >
      <feFlood flood-opacity="0" result="BackgroundImageFix" />
      <feColorMatrix
        in="SourceAlpha"
        type="matrix"
        values="0 0 0 0 0 0 0 0 0 0 0 0 0 0 0 0 0 0 127 0"
        result="hardAlpha"
      />
      <feOffset dy="13" />
      <feGaussianBlur stdDeviation="6" />
      <feComposite in2="hardAlpha" operator="out" />
      <feColorMatrix type="matrix" values="0 0 0 0 0.823529 0 0 0 0 0.0392157 0 0 0 0 0.0392157 0 0 0 0.32 0" />
      <feBlend mode="normal" in2="BackgroundImageFix" result="effect1_dropShadow" />
      <feBlend mode="normal" in="SourceGraphic" in2="effect1_dropShadow" result="shape" />
    </filter>
    <linearGradient
      id="paint0_linear"
      x1="64.6888"
      y1="29.0723"
      x2="132.257"
      y2="166.19"
      gradientUnits="userSpaceOnUse"
    >
      <stop stop-color="#FFF0F1" />
      <stop offset="1" stop-color="#FF8F8F" />
    </linearGradient>
    <linearGradient id="paint1_linear" x1="53.5" y1="-17" x2="181.465" y2="272.165" gradientUnits="userSpaceOnUse">
      <stop stop-color="#FFF0F1" />
      <stop offset="1" stop-color="#FF8F8F" />
    </linearGradient>
  </defs>
</svg>
