<svg width="221" height="235" viewBox="0 0 221 235" fill="none" xmlns="http://www.w3.org/2000/svg">
  <g filter="url(#filter0_f)">
    <rect x="60" y="60" width="101" height="115" rx="16" fill="url(#paint0_linear)" fill-opacity="0.9" />
  </g>
  <rect x="51" y="24" width="120" height="136" rx="20" fill="url(#paint1_linear)" />
  <path
    d="M122.868 51H100.074C97.4032 51.0033 94.8428 52.0722 92.9543 53.9722C91.0658 55.8721 90.0033 58.448 90 61.135V138.773C90.0008 141.463 91.062 144.042 92.9506 145.945C94.8392 147.848 97.401 148.919 100.074 148.924H122.849C125.525 148.921 128.09 147.851 129.983 145.948C131.876 144.045 132.942 141.465 132.948 138.773V61.135C132.943 58.4475 131.879 55.8716 129.99 53.9718C128.1 52.072 125.539 51.0033 122.868 51"
    fill="white"
  />
  <path
    d="M117.212 68.9527L117.237 69.2684C117.931 69.6757 118.282 70.0072 118.985 70.4619C120.843 71.6364 123.134 73.7297 122.842 80.9379C123.363 82.5165 123.596 85.6012 124.076 86.5926C125.046 88.5217 125.692 89.7784 125.959 91.6033C125.959 91.6033 126.238 94.4449 126.602 94.6438C128.523 95.0795 127.967 95.2752 128.25 95.591C128.548 95.9793 129.656 95.9604 129.656 96.9991C130.024 97.4956 130.323 98.0406 130.544 98.6188V61.1352C130.542 59.0854 129.734 57.1198 128.295 55.6683C126.856 54.2169 124.905 53.3978 122.868 53.3903H115.502C116.676 53.8133 117.354 54.3122 117.743 55.1047C118.684 55.1868 119.823 57.3306 118.057 60.4974C118.838 61.0215 118.229 61.8014 117.667 62.7075C117.504 62.998 117.325 63.5158 116.804 63.481C116.136 64.8955 115.329 66.2658 114.717 66.3542C114.532 66.5815 114.404 67.1909 114.677 67.4782C115.574 67.8823 116.666 68.4254 117.206 68.9527"
    fill="#C8102E"
  />
  <path
    d="M130.56 103.727C130.124 104.829 129.414 105.801 128.497 106.547C127.581 107.293 126.489 107.79 125.326 107.989C124.164 108.188 122.97 108.083 121.859 107.683C120.749 107.284 119.759 106.604 118.986 105.709C118.212 104.813 117.681 103.733 117.442 102.571C117.204 101.409 117.266 100.205 117.624 99.0747C117.982 97.9443 118.623 96.9255 119.485 96.1163C120.347 95.3071 121.402 94.7346 122.548 94.4541C121.757 92.4618 120.084 89.2319 119.588 88.171C119.092 87.1101 117.988 80.5524 117.743 79.2516C117.686 78.9674 114.78 80.9502 114.774 81.0702C114.604 81.2375 112.577 86.5197 112.508 86.807C112.477 87.1007 112.462 87.3958 112.464 87.6911C112.464 87.6911 113.453 87.8142 114.033 89.5508C114.614 91.2873 116.315 97.6114 116.315 97.6114C116.166 97.7766 116.003 97.9288 115.828 98.066C118 105.372 117.241 108.517 118.213 110.657C119.437 113.679 119.783 113.281 120.818 115.82C121.568 117.667 122.409 124.941 122.701 125.263C123.875 126.757 124.503 127.925 124.503 128.768C124.503 129.611 123.511 132.121 123.875 133.58C124.092 134.438 124.208 136.361 124.606 136.737C124.606 136.737 124.97 137.46 124.791 137.779C124.738 137.889 124.634 138.06 124.682 138.189C125.328 140.485 127.412 144.396 124.035 146.446H124.107C125.918 146.156 127.565 145.222 128.749 143.814C129.933 142.406 130.576 140.618 130.56 138.773V103.727Z"
    fill="#C8102E"
  />
  <path
    d="M121.885 137.29C120.649 136.178 121.474 135.711 121.427 135.269C120.611 131.878 117.931 129.826 119.318 128.708C118.976 127.587 118.279 126.182 118.304 126.182C114.134 123.773 110.578 119.868 109.975 119.28C109.244 118.482 107.998 117.676 107.779 117.029C106.774 116.101 101.857 109.082 100.711 106.496L98.7151 106.212C97.8081 102.48 94.7765 99.3545 94.7012 95.6099C94.6729 94.1954 95.3288 91.1644 95.5862 90.5582C95.8435 89.952 96.989 88.9385 96.989 88.9385V87.9408C92.6361 88.0639 93.8883 87.6251 93.1351 85.9138C92.611 84.7361 92.9876 84.4772 93.1759 83.6595C93.7628 81.2441 95.7023 77.5216 96.5057 75.8293C96.7505 74.9737 97.5915 72.9151 97.5915 72.9151C100.837 66.2658 102.048 66.7552 105.902 66.3795L106.093 66.1048C109.957 65.9374 109.323 65.6438 109.859 61.9024C109.294 62.1455 109.128 60.7279 109.128 60.7279C108.814 58.5998 109.715 59.0008 110.139 58.9598C110.23 55.4583 110.584 54.3564 113.095 53.3903H100.08C99.0683 53.3898 98.0663 53.5901 97.1313 53.9794C96.1964 54.3688 95.3469 54.9398 94.6314 55.6596C93.9158 56.3795 93.3483 57.2341 92.9613 58.1747C92.5742 59.1153 92.3752 60.1235 92.3757 61.1415V138.774C92.3748 139.792 92.5735 140.8 92.9604 141.741C93.3473 142.682 93.9147 143.537 94.6302 144.258C95.3458 144.978 96.1955 145.549 97.1306 145.939C98.0658 146.328 99.0681 146.528 100.08 146.528H122.868C120.256 145.114 121.797 142.414 121.885 137.29Z"
    fill="#1D428A"
  />
  <path
    d="M104.389 141.653V127.596H107.101C108.67 127.596 109.636 128.443 109.636 130.413V132.497C109.636 133.775 109.25 134.426 108.695 134.742C109.238 135.117 109.636 135.746 109.636 136.81V138.859C109.636 140.785 108.61 141.653 107.101 141.653H104.389ZM106.25 135.55V139.882H106.966C107.593 139.882 107.779 139.544 107.779 138.874V136.494C107.779 135.806 107.565 135.547 106.947 135.547L106.25 135.55ZM106.25 129.368V134.012H106.947C107.603 134.012 107.779 133.775 107.779 133.008V130.312C107.779 129.661 107.584 129.365 106.966 129.365L106.25 129.368ZM114.014 138.799H112.329L112.094 141.64H110.211L111.896 127.584H114.573L116.202 141.64H114.247L114.014 138.799ZM113.18 129.172H113.082C112.966 130.864 112.734 133.835 112.656 134.783L112.445 137.195H113.898L113.685 134.776C113.606 133.81 113.337 130.877 113.18 129.166V129.172ZM98.8532 141.653H97.2181V127.596H99.7947L101.866 139.111C101.693 136.358 101.458 133.03 101.458 130.195V127.596H103.087V141.653H100.73L98.6586 130.391C98.7936 132.989 98.8532 135.057 98.8532 137.223V141.653Z"
    fill="white"
  />
  <defs>
    <filter
      id="filter0_f"
      x="0"
      y="0"
      width="221"
      height="235"
      filterUnits="userSpaceOnUse"
      color-interpolation-filters="sRGB"
    >
      <feFlood flood-opacity="0" result="BackgroundImageFix" />
      <feBlend mode="normal" in="SourceGraphic" in2="BackgroundImageFix" result="shape" />
      <feGaussianBlur stdDeviation="30" result="effect1_foregroundBlur" />
    </filter>
    <linearGradient
      id="paint0_linear"
      x1="92.6888"
      y1="53.0723"
      x2="160.257"
      y2="190.19"
      gradientUnits="userSpaceOnUse"
    >
      <stop stop-color="#A59DFA" />
      <stop offset="1" stop-color="#F3CFBF" />
    </linearGradient>
    <linearGradient id="paint1_linear" x1="85.5" y1="4.5" x2="216.436" y2="329.46" gradientUnits="userSpaceOnUse">
      <stop stop-color="#E0EBFF" />
      <stop offset="1" stop-color="#FFA7B5" />
    </linearGradient>
  </defs>
</svg>
